name C:\Users\u0150099\Documents\master_thesis\3dpredictsim\Results\debug\Fal_s1_mtjc2_sc_cspx10_oy2_ATx70_Fpsl10_MTc2_MTPm_k1_d01_MTJm_nl_MG_exp5_table_d01_PF_Song2011_ls146_FDB2_lTs125_Fpsl10_ig21_wAk5e+04_wa2e+03_wpMnD1e+03.mot
datacolumns 130
datarows 4
range 1.56338058 1.59464819
endheader
time	pelvis_tilt	pelvis_list	pelvis_rotation	pelvis_tx	pelvis_ty	pelvis_tz	hip_flexion_l	hip_adduction_l	hip_rotation_l	hip_flexion_r	hip_adduction_r	hip_rotation_r	knee_angle_l	knee_angle_r	ankle_angle_l	ankle_angle_r	subtalar_angle_l	subtalar_angle_r	mtj_angle_l	mtj_angle_r	mtp_angle_l	mtp_angle_r	lumbar_extension	lumbar_bending	lumbar_rotation	arm_flex_l	arm_add_l	arm_rot_l	arm_flex_r	arm_add_r	arm_rot_r	elbow_flex_l	elbow_flex_r	pro_sup_l	pro_sup_r	glut_med1_l/activation	glut_med2_l/activation	glut_med3_l/activation	glut_min1_l/activation	glut_min2_l/activation	glut_min3_l/activation	semimem_l/activation	semiten_l/activation	bifemlh_l/activation	bifemsh_l/activation	sar_l/activation	add_long_l/activation	add_brev_l/activation	add_mag1_l/activation	add_mag2_l/activation	add_mag3_l/activation	tfl_l/activation	pect_l/activation	grac_l/activation	glut_max1_l/activation	glut_max2_l/activation	glut_max3_l/activation	iliacus_l/activation	psoas_l/activation	quad_fem_l/activation	gem_l/activation	peri_l/activation	rect_fem_l/activation	vas_med_l/activation	vas_int_l/activation	vas_lat_l/activation	med_gas_l/activation	lat_gas_l/activation	soleus_l/activation	tib_post_l/activation	flex_dig_l/activation	flex_hal_l/activation	tib_ant_l/activation	per_brev_l/activation	per_long_l/activation	per_tert_l/activation	ext_dig_l/activation	ext_hal_l/activation	FDB_l/activation	ercspn_l/activation	intobl_l/activation	extobl_l/activation	glut_med1_r/activation	glut_med2_r/activation	glut_med3_r/activation	glut_min1_r/activation	glut_min2_r/activation	glut_min3_r/activation	semimem_r/activation	semiten_r/activation	bifemlh_r/activation	bifemsh_r/activation	sar_r/activation	add_long_r/activation	add_brev_r/activation	add_mag1_r/activation	add_mag2_r/activation	add_mag3_r/activation	tfl_r/activation	pect_r/activation	grac_r/activation	glut_max1_r/activation	glut_max2_r/activation	glut_max3_r/activation	iliacus_r/activation	psoas_r/activation	quad_fem_r/activation	gem_r/activation	peri_r/activation	rect_fem_r/activation	vas_med_r/activation	vas_int_r/activation	vas_lat_r/activation	med_gas_r/activation	lat_gas_r/activation	soleus_r/activation	tib_post_r/activation	flex_dig_r/activation	flex_hal_r/activation	tib_ant_r/activation	per_brev_r/activation	per_long_r/activation	per_tert_r/activation	ext_dig_r/activation	ext_hal_r/activation	FDB_r/activation	ercspn_r/activation	intobl_r/activation	extobl_r/activation	
          1.56338058	         -2.91942463	          1.54694367	         -2.91401466	          2.07929617	          0.90730671	          0.00345855	         30.71285122	          2.40124448	         -4.07654143	        -11.81069450	          1.41932789	          6.68834457	        -15.13781105	        -19.02103788	         10.29460065	          8.94741876	         11.08761990	         15.12319442	          0.89679382	          2.11314280	         -2.65914184	         13.23738202	         -4.43138627	         -1.40441175	          1.91787069	         -4.26014731	        -13.45744783	          4.59855777	          3.12412235	        -13.94109190	         19.32139340	         27.87944940	         41.22550263	         86.51662706	         86.51662706	          0.06887951	          0.05000014	          0.05868542	          0.05000008	          0.05000011	          0.05000053	          0.29372038	          0.06887963	          0.36679211	          0.05000203	          0.05000093	          0.08472495	          0.15770209	          0.17194892	          0.20003814	          0.20551142	          0.05000183	          0.05004356	          0.06890634	          0.05869066	          0.13239026	          0.16523752	          0.05000007	          0.05000007	          0.12813955	          0.05000077	          0.05000023	          0.05000007	          0.05052575	          0.05006621	          0.05000783	          0.07045439	          0.05000019	          0.05000002	          0.21736513	          0.08570268	          0.05304137	          0.44338668	          0.05868540	          0.05069426	          0.23363314	          0.64457059	          0.35113622	          0.30345927	          0.05868958	          0.07518006	          0.09534034	          0.17955759	          0.05868830	          0.05000007	          0.37258805	          0.19427542	          0.09430726	          0.05000062	          0.05000008	          0.05000008	          0.05000023	          0.09317937	          0.05000006	          0.05000005	          0.05000011	          0.05000033	          0.05000017	          0.57951469	          0.05000038	          0.05000017	          0.05000130	          0.05000051	          0.05000021	          0.40317388	          0.71335652	          0.05000004	          0.05000018	          0.05000007	          0.49627949	          0.19452831	          0.20236171	          0.17187235	          0.34446914	          0.49069242	          0.23492874	          0.83605865	          0.50712354	          0.70734882	          0.05000001	          0.06887966	          0.21970821	          0.05000003	          0.05000001	          0.10275593	          0.70658344	          0.05000001	          0.05000000	          0.05000001	
          1.57380311	         -2.92197490	          1.68354459	         -3.14172189	          2.09559232	          0.90602350	          0.00303406	         30.45993636	          2.75969939	         -4.17393014	        -12.50001771	          1.03382270	          6.88508442	        -15.37214913	        -19.36445987	          9.84936403	          7.75083668	         11.33538419	         15.48220530	          1.22980806	          1.50931033	         -2.94235943	         15.53716713	         -4.27004355	         -1.60148418	          2.01055421	         -4.91825788	        -13.44970730	          3.96248616	          2.66427456	        -13.90731176	         19.16412236	         27.27672663	         42.86821611	         86.51662706	         86.51662706	          0.05868544	          0.05868544	          0.05000011	          0.05868547	          0.05868547	          0.05868524	          0.25621777	          0.05868548	          0.32509131	          0.05868541	          0.05000013	          0.16378588	          0.18691122	          0.14650095	          0.17694536	          0.19549599	          0.05000007	          0.05000608	          0.05870834	          0.05000460	          0.12406587	          0.19039887	          0.05041156	          0.05000436	          0.39183781	          0.24390087	          0.12302122	          0.05000004	          0.05000007	          0.05000007	          0.05000005	          0.07209860	          0.05321699	          0.05000082	          0.22656065	          0.07301925	          0.05868666	          0.45410710	          0.05000003	          0.08812450	          0.33145229	          0.67908330	          0.34251289	          0.27799312	          0.05000353	          0.06405341	          0.08122998	          0.15298309	          0.05000246	          0.05000002	          0.31744506	          0.16552271	          0.08034983	          0.05000579	          0.05000017	          0.05000011	          0.05000318	          0.07938892	          0.08889485	          0.05000883	          0.05000047	          0.05000158	          0.05000106	          0.52911435	          0.05164993	          0.05000030	          0.05000056	          0.05000035	          0.05000030	          0.34350416	          0.64747570	          0.05000003	          0.05000012	          0.05000019	          0.47655031	          0.17992485	          0.22356186	          0.18893513	          0.31712771	          0.46243279	          0.20337066	          0.79496659	          0.44547152	          0.61623576	          0.05000000	          0.05868550	          0.18719140	          0.05000004	          0.05000001	          0.08754806	          0.60200909	          0.05000000	          0.05000015	          0.06686429	
          1.58422565	         -2.92266971	          1.82348774	         -3.35217231	          2.11215721	          0.90476990	          0.00259098	         30.18987054	          3.07276205	         -4.25008505	        -13.11269539	          0.63586329	          7.05647663	        -16.28241394	        -19.81019180	          9.03090355	          6.41073383	         11.55722159	         15.86991886	          1.72900556	          0.75131725	         -3.18280557	         18.09426567	         -4.09511235	         -1.80151842	          2.09496361	         -5.57534248	        -13.46395027	          3.54241819	          2.13667924	        -13.86818934	         18.95843986	         26.63567050	         44.51320767	         86.51662706	         86.51662706	          0.05000000	          0.05000002	          0.12603963	          0.05000004	          0.05000004	          0.05000004	          0.21829755	          0.05000004	          0.27697780	          0.05000001	          0.08084350	          0.13954592	          0.29089658	          0.26809663	          0.15075872	          0.22089239	          0.05868553	          0.08083788	          0.05001956	          0.05000064	          0.15039760	          0.20217181	          0.06887795	          0.06887976	          0.63142662	          0.20780359	          0.10481415	          0.06887973	          0.15094898	          0.14323259	          0.12853578	          0.06887963	          0.06887965	          0.06887961	          0.21589651	          0.06221245	          0.05000111	          0.55140553	          0.06889268	          0.07508208	          0.60553157	          0.71665900	          0.37061840	          0.23685013	          0.05000000	          0.05457351	          0.06920794	          0.13034161	          0.05868547	          0.05868546	          0.27046321	          0.14102538	          0.06845811	          0.05000256	          0.05000460	          0.05868538	          0.05000004	          0.06763948	          0.21729232	          0.07785790	          0.05868599	          0.05868575	          0.05868567	          0.45080597	          0.05000055	          0.05868570	          0.05868562	          0.05868555	          0.05868554	          0.29266555	          0.58288322	          0.05868552	          0.05868561	          0.05868542	          0.40602116	          0.21135382	          0.21135512	          0.20901573	          0.28192230	          0.41385973	          0.17327181	          0.68642350	          0.37954181	          0.52503292	          0.05000000	          0.05000008	          0.15948708	          0.05000002	          0.05000001	          0.07459096	          0.51291173	          0.05297637	          0.06887968	          0.06887964	
          1.59464819	         -2.92268180	          1.99027722	         -3.54880494	          2.12894753	          0.90362912	          0.00216910	         29.81126546	          3.31465471	         -4.21624187	        -13.65035623	          0.20944713	          7.20428272	        -17.38567462	        -20.33544253	          8.23389973	          4.91885178	         11.78078261	         16.22927190	          2.09285729	         -0.18980387	         -3.39057550	         20.87747535	         -3.90669438	         -2.03147252	          2.17180288	         -6.21343027	        -13.50309614	          3.33195655	          1.55607697	        -13.81641913	         18.73798951	         25.92681465	         46.13248489	         86.51662706	         86.51662706	          0.34096647	          0.33744230	          0.41430116	          0.38181330	          0.26065644	          0.25844197	          0.19319346	          0.16672841	          0.23866146	          0.11304155	          0.06887892	          0.11889316	          0.24784393	          0.22841837	          0.12844651	          0.26573212	          0.05000019	          0.06887426	          0.24631683	          0.21437454	          0.22297316	          0.24270250	          0.05868563	          0.05868561	          0.53797550	          0.17704874	          0.14768316	          0.05868553	          0.12860853	          0.12203417	          0.10951249	          0.05868545	          0.05868546	          0.05868542	          0.28330781	          0.05868544	          0.05868540	          0.60352873	          0.05869658	          0.09505479	          0.61821856	          0.83282097	          0.62864745	          0.54972047	          0.06833652	          0.09384897	          0.05896517	          0.18683287	          0.05000005	          0.05000002	          0.29993472	          0.12015369	          0.05832634	          0.05000066	          0.05000004	          0.05000003	          0.06234224	          0.06887981	          0.20213541	          0.06633509	          0.05000052	          0.05000047	          0.05000027	          0.53272821	          0.06895125	          0.05000037	          0.05000036	          0.05000019	          0.05000014	          0.25014422	          0.68841683	          0.05000007	          0.05000017	          0.05000001	          0.34593008	          0.18007347	          0.18007459	          0.17808142	          0.24328451	          0.37323706	          0.14762758	          0.58483283	          0.32336964	          0.44732806	          0.07582492	          0.05000006	          0.13588299	          0.05000003	          0.05000001	          0.06355150	          0.43700078	          0.09299384	          0.05868549	          0.05868546	
